<svg role="img" viewBox="0 0 24 24" xmlns="http://www.w3.org/2000/svg"><title>Amazon AWS</title><path d="M6.763 6.972c0 .114.06.217.158.284L11.96 10.468c.099.057.22.057.319 0l5.04-3.213c.098-.067.158-.17.158-.284V3.544c0-.114-.06-.217-.159-.283L12.279 0c-.099-.058-.22-.058-.319 0L6.922 3.261C6.824 3.327 6.763 3.43 6.763 3.544v3.428zm0 10.02v3.428c0 .114.06.217.158.283l5.038 3.216c.099.058.22.058.319 0l5.04-3.216c.098-.066.158-.169.158-.283v-3.428c0-.114-.06-.216-.159-.283l-5.039-3.214c-.099-.058-.22-.058-.319 0l-5.038 3.214c-.098.067-.158.169-.158.283zm12.474-5.01V8.966c0-.114-.06-.217-.159-.283l-5.038-3.214c-.099-.058-.22-.058-.319 0l-5.039 3.214c-.098.066-.158.169-.158.283v3.428c0 .114.06.216.158.283l5.039 3.214c.099.058.22.058.319 0l5.038-3.214c.099-.067.159-.169.159-.283zm5.982 3.428l-2.52 1.607c-.098.058-.22.058-.318 0l-5.039-3.213c-.098-.067-.158-.17-.158-.284V9.21c0-.114.06-.217.158-.283l5.039-3.216c.098-.058.22-.058.318 0l2.52 1.605c.099.058.159.17.159.283v3.428c0 .114-.06.216-.159.283zm2.52 5.62l-5.04-3.213c-.098-.066-.158-.169-.158-.283v-3.428c0-.114.06-.217.158-.284l5.04-3.213c.099-.057.22-.057.319 0l5.038 3.213c.099.067.158.17.158.284v3.428c0 .114-.059.217-.158.283l-5.038 3.213c-.099.058-.22.058-.319 0z" fill="#FF9900"/></svg>