<svg role="img" viewBox="0 0 24 24" xmlns="http://www.w3.org/2000/svg"><title>Java</title><path d="M8.431 17.015c-.502.268-.814 1.211-.814 2.225 0 1.305.651 2.348 1.968 2.348 1.287 0 2.005-.907 2.005-2.239 0-1.143-.397-1.883-1.197-2.367-.372-.235-1.021-.282-1.962-.282v.315zm-.386 2.577c0 .632.182 1.05.71 1.05.588 0 .873-.467.873-1.143 0-.56-.17-1.057-.697-1.134-.236-.04-.509-.019-.886.027v1.2zm5.35-3.852c.46 0 .77.254 1.028.58-.135-.034-.378-.046-.504-.046-.77 0-1.528.188-1.528 1.089 0 .398.212.667.576.667.487 0 .945-.305.945-.841v-.45h.34l.142 1.098h-.34c-.04-.272-.045-.35-.133-.447.288.307.593.475.93.475 1.016 0 1.46-.958 1.46-2.205 0-1.347-.62-2.083-1.87-2.083-.7 0-1.366.233-1.868.71l.223.36zm7.25-3.087l.16.76h-.354l-.058-.336c-.095.182-.292.336-.53.336-.46 0-.792-.315-.792-1.005 0-.746.397-1.134 1.148-1.134.22 0 .408.034.592.08l-.062-.358c-.19-.038-.4-.06-.622-.06-.905 0-1.506.519-1.506 1.45 0 .87.456 1.507 1.32 1.507.46 0 .914-.238 1.142-.639l.245.001c-.172.6-.733 1.002-1.387 1.002-.984 0-1.663-.681-1.663-1.717 0-1.053.686-1.753 1.68-1.753.62 0 1.17.274 1.44.764l-.21.06c-.186-.37-.528-.616-1.01-.616-.69 0-1.176.53-1.176 1.384 0 .94.47 1.452 1.187 1.452.558 0 .983-.362 1.063-.967h-.364v-.254h.619zm-4.37 3.025c0 1.174-.572 1.912-1.575 1.912-.476 0-.85-.188-1.083-.532.052.214.075.436.075.663 0 1.054-.525 1.696-1.51 1.696-.5 0-.889-.204-1.12-.598l-1.168.59c.26.358.738.593 1.322.593 1.228 0 2.08-.778 2.08-2.015 0-.493-.142-1.002-.462-1.418.3-.34.72-.525 1.175-.525 1.048 0 1.673.766 1.673 1.634zm6.62-3.025l.16.76h-.354l-.058-.336c-.095.182-.292.336-.53.336-.46 0-.792-.315-.792-1.005 0-.746.397-1.134 1.148-1.134.22 0 .408.034.592.08l-.062-.358c-.19-.038-.4-.06-.622-.06-.905 0-1.506.519-1.506 1.45 0 .87.456 1.507 1.32 1.507.46 0 .914-.238 1.142-.639l.245.001c-.172.6-.733 1.002-1.387 1.002-.984 0-1.663-.681-1.663-1.717 0-1.053.686-1.753 1.68-1.753.62 0 1.17.274 1.44.764l-.21.06c-.186-.37-.528-.616-1.01-.616-.69 0-1.176.53-1.176 1.384 0 .94.47 1.452 1.187 1.452.558 0 .983-.362 1.063-.967h-.364v-.254h.619zM2.992.008h.88l.64 2.24c.057.192.115.402.155.567.04.165.066.298.078.295.012.003.04-.126.08-.289.04-.163.098-.375.155-.567l.64-2.246h.88l.848 3.013H4.77l-.277-1.047c-.054-.204-.108-.456-.162-.756-.052-.3-.081-.506-.089-.518a1.346 1.346 0 0 0-.096.518c-.052.3-.103.552-.155.756l-.277 1.047h-.702l.277-1.047c.054-.204.108-.456.162-.756.052-.3.081-.506.089-.518.011.012.04.126.096.518.054.3.103.552.155.756l.277 1.047h-.627zm2.79 3.013l1.266-3.013h.8l1.266 3.013h-.835l-.218-.603h-1.226l-.218.603h-.835zm1.01-1.139l-.331-.967c-.066-.19-.11-.331-.139-.43a1.55 1.55 0 0 0-.103.43l-.331.967h.904zm2.4 1.139V.008h.858v2.164h1.307v.849h-2.165zm2.34 0v-1.41c0-.224.033-.406.1-.545.066-.14.17-.243.306-.308.137-.064.299-.096.487-.096.288 0 .498.073.632.218.135.146.202.385.202.715v1.426h.842v-1.426c0-.514-.09-.889-.271-1.124-.18-.236-.482-.354-.908-.354-.354 0-.648.092-.883.275.078-.09.145-.206.2-.349h-.742c-.026.139-.053.273-.082.404-.028.13-.059.263-.093.397-.034.135-.073.275-.117.422h.692c0 .17-.122.342-.368.516-.246.175-.544.262-.894.262-.355 0-.617-.086-.788-.259-.17-.172-.255-.438-.255-.797v-1.426h-.842v1.426c0 .514.09.889.272 1.124.18.236.482.354.908.354.354 0 .648-.092.882-.275-.077.089-.143.205-.198.348h.742c.025-.138.052-.271.08-.401.03-.13.063-.266.098-.408.035-.142.074-.289.116-.441h-.692zm4.4 0v-3.013h.842v3.013h-.842zm.42-3.422c-.148 0-.274-.05-.377-.149-.104-.099-.155-.223-.155-.373 0-.15.051-.274.155-.373.103-.099.229-.149.377-.149s.274.05.378.149c.103.099.155.223.155.373 0 .15-.052.274-.155.373-.104.099-.23.149-.378.149zm2.19 3.422l-1.1-3.013h.906l.507 1.59c.038.125.078.286.12.483.041.197.066.334.076.31.01.024.036-.113.078-.31.042-.197.083-.358.121-.483l.507-1.59h.906l-1.1 3.013h-.915zm3.16-3.013h.86l1.16 1.785c.054.088.127.222.218.402.09.18.149.297.178.254-.025.066-.046.17-.065.311-.02.142-.03.324-.03.546v1.715h-.842v-1.715c0-.222-.01-.404-.03-.546-.019-.142-.04-.245-.065-.311.029.043.088-.074.178-.254.09-.18.164-.314.218-.402l1.16-1.785h-.872l-.9 1.404v-1.404h-.842v3.013h.842v-1.404l.9-1.609zm5.156 3.013v-1.41c0-.224.033-.406.1-.545.067-.14.17-.243.307-.308.136-.064.298-.096.486-.096.288 0 .498.073.632.218.135.146.202.385.202.715v1.426h.842v-1.426c0-.514-.089-.889-.27-1.124-.182-.236-.483-.354-.909-.354-.354 0-.648.092-.882.275.077-.09.144-.206.199-.349h-.742c-.025.139-.052.273-.082.404-.028.13-.06.263-.093.397-.035.135-.073.275-.118.422h.693c0 .17-.122.342-.368.516-.247.175-.544.262-.894.262-.355 0-.617-.086-.788-.259-.17-.172-.256-.438-.256-.797v-1.426h-.842v1.426c0 .514.09.889.271 1.124.181.236.483.354.909.354.354 0 .648-.092.882-.275-.076.089-.142.205-.198.348h.742c.025-.138.052-.271.081-.401.03-.13.063-.266.098-.408.035-.142.074-.289.116-.441h-.693zm-11.226 4.55c-.45 0-.806.152-1.067.455-.261.302-.391.76-.391 1.372 0 .612.13 1.07.391 1.372.261.302.617.454 1.067.454.45 0 .806-.152 1.067-.454.261-.302.391-.76.391-1.372 0-.612-.13-1.07-.391-1.372-.261-.303-.617-.455-1.067-.455zm0 .314c.35 0 .603.125.76.377.158.252.237.68.237 1.281 0 .602-.079 1.03-.237 1.28-.157.252-.41.378-.76.378-.35 0-.603-.126-.76-.378-.158-.25-.237-.678-.237-1.28 0-.6.079-1.029.237-1.281.157-.252.41-.377.76-.377zm2.788 2.63v-3.013h.88l.64 2.24c.058.192.115.402.155.567.041.165.067.298.078.295.012.003.041-.126.08-.289.041-.163.1-.375.156-.567l.64-2.246h.879l.848 3.013h-.836l-.277-1.047c-.055-.204-.109-.456-.162-.756-.053-.3-.081-.506-.089-.518a1.346 1.346 0 0 0-.096.518c-.053.3-.104.552-.156.756l-.276 1.047h-.703l.276-1.047c.055-.204.109-.456.163-.756.052-.3.081-.506.088-.518.012.012.041.126.097.518.053.3.103.552.155.756l.277 1.047h-.627zm4.276 0v-3.013h.842v3.013h-.842zm.42-3.422c-.148 0-.274-.05-.377-.149-.104-.099-.155-.223-.155-.373 0-.15.051-.274.155-.373.103-.099.229-.149.377-.149s.274.05.378.149c.103.099.155.223.155.373 0 .15-.052.274-.155.373-.104.099-.23.149-.378.149zm2.19 3.422l-1.1-3.013h.906l.507 1.59c.038.125.078.286.12.483.041.197.066.334.076.31.01.024.036-.113.078-.31.042-.197.083-.358.121-.483l.507-1.59h.906l-1.1 3.013h-.915zm3.16-3.013h.858l1.307 1.963v-1.963h.842v3.013h-.859l-1.307-1.963v1.963h-.841zm4.436 3.013v-1.41c0-.224.032-.406.099-.545.067-.14.171-.243.307-.308.137-.064.299-.096.487-.096.288 0 .498.073.632.218.135.146.202.385.202.715v1.426h.842v-1.426c0-.514-.089-.889-.27-1.124-.182-.236-.483-.354-.909-.354-.354 0-.648.092-.882.275.077-.09.144-.206.199-.349h-.742c-.025.139-.052.273-.082.404-.028.13-.06.263-.093.397-.035.135-.073.275-.118.422h.693c0 .17-.122.342-.368.516-.247.175-.544.262-.894.262-.355 0-.617-.086-.788-.259-.17-.172-.256-.438-.256-.797v-1.426h-.842v1.426c0 .514.089.889.271 1.124.182.236.483.354.909.354.354 0 .647-.092.882-.275-.077.089-.143.205-.198.348h.742c.025-.138.052-.271.081-.401.03-.13.063-.266.098-.408.035-.142.074-.289.116-.441h-.693z" fill="#007396"/></svg>