<svg role="img" viewBox="0 0 24 24" xmlns="http://www.w3.org/2000/svg"><title>Python</title><path d="M14.25.18l.9.2.73.26.59.3.45.32.34.34.25.34.16.33.1.3.04.26.02.2-.02.13V8.5h-2.47V.25c0-.147.05-.29.15-.41.1-.12.23-.2.38-.25zm-9.5 0C3.4 0 2.25.106 1.25.32l.44 2.44c.956-.12 1.78-.18 2.6-.18h5.4v2.54H2.1v3.361h5.84v2.47H.5V4.26H.49V1.25C.49.544.77 0 1.5 0h5.25z" fill="#366994"/><path d="M17.85 24c.15 0 .3-.03.42-.1l.44-2.44c-.956.12-1.78.18-2.6.18h-5.4v-2.54h8.14V17.09h-5.84v-2.47h7.9V19.74h.01v2.5C23.51 23.456 23.23 24 22.5 24h-5.25z" fill="#FFE873"/></svg>