<svg role="img" viewBox="0 0 24 24" xmlns="http://www.w3.org/2000/svg"><title>React</title><path d="M14.23 12.005c2.126-6.716 1.533-13.909-1.884-15.142-3.417-1.232-6.734 3.0-8.86 9.718-.233.987-.605 2.05-1.012 3.144.541 1.694 1.222 3.248 2.021 4.633 4.291-7.57 8.398-13.5 9.735-12.353m-5.916 5.026c-1.209-1.393-2.247-3.358-2.967-5.８41 1.744-.216 3.488.288 5.134 1.156-.72 1.745-1.723 3.257-2.167 4.685zm6.61-8.545c2.013 1.454 2.508 5.09 1.086 8.755-1.422-2.05-3.354-3.513-5.313-4.322.523-1.346.936-2.526 1.235-3.69.08-.18.159-.36.237-.534.996.18 1.958.576 2.755 1.791zm-9.424 8.05c.71-.857 1.674-2.108 2.4-3.514.38.088.763.186 1.158.3-1.202 1.796-2.192 3.287-2.77 4.145-.27.38-.51.753-.788 1.123-.588-1.02-1.096-2.092-1.5-3.054m4.56-8.387c1.343 1.067 2.612 2.637 3.635 4.479-2.002-.37-3.942-.37-5.836.135.805-1.894 1.772-3.271 2.201-4.614zm-3.846-1.287c1.395-1.744 3.032-2.254 3.886-1.816.854.438.77 2.123-.27 4.04-.767-1.04-1.645-1.887-2.468-2.698-.383-.345-.73-.656-1.148-.526zm7.847-1.609c2.33 1.663 3.897 5.226 3.897 9.57 0 .268-.015.534-.045.798-.812-1.757-2.155-3.337-3.851-4.492 1.197-1.822 1.827-3.694 1.827-5.385 0-.28-.016-.558-.045-.834z" fill="#61DAFB"/></svg>