<svg role="img" viewBox="0 0 24 24" xmlns="http://www.w3.org/2000/svg"><title>TypeScript</title><path d="M1.125 0C.578 0 0 .578 0 1.125v21.75C0 23.422.578 24 1.125 24h21.75c.547 0 1.125-.578 1.125-1.125V1.125C24 .578 23.422 0 22.875 0zm17.363 9.75c.612 0 1.154.037 1.627.111a6.38 6.38 0 0 1 1.306.404v2.305a3.947 3.947 0 0 0-.857-.484 5.046 5.046 0 0 0-1.59-.17c-.281 0-.543.035-.784.106-.24.07-.451.17-.633.29-.181.119-.322.251-.428.394a2.3 2.3 0 0 0-.226.457c-.035.087-.06.166-.081.241a5.694 5.694 0 0 0-.055.351c-.019.132-.037.264-.051.398-.05.453-.087.907-.111 1.361-.024.454-.04.909-.051 1.365-.011.456 0 .911.026 1.366.025.455.084.91.179 1.364.046.243.111.485.2.726a3.989 3.989 0 0 0 .669 1.464c.288.393.674.728 1.156.992.483.264 1.069.456 1.759.568.69.112 1.487.112 2.39 0 .9-.112 1.622-.335 2.166-.67.545-.337.976-.814 1.292-1.432.317-.617.531-1.366.64-2.247.11-.88.166-1.898.166-3.053 0-1.156-.055-2.174-.166-3.053-.11-.881-.323-1.63-.64-2.247a2.786 2.786 0 0 0-1.292-1.432c-.544-.335-1.266-.558-2.166-.67-.903-.112-1.7-.112-2.39 0-.69.112-1.276.304-1.759.568-.482.264-.868.599-1.156.992a3.989 3.989 0 0 0-.669 1.464 2.08 2.08 0 0 0-.2.726 5.627 5.627 0 0 0-.179 1.364c-.026.455-.037.91-.026 1.366.011.456.027.91.051 1.365.024.454.061.908.111 1.361.024.175.044.35.081.517.028.166.055.332.086.497.03.165.032.331 0 .497a1.347 1.347 0 0 1-.118.426 1.083 1.083 0 0 1-.241.338 1.053 1.053 0 0 1-.35.213 1.048 1.048 0 0 1-.428.08.97.97 0 0 1-.328-.057 1.029 1.029 0 0 1-.3-.163 1.078 1.078 0 0 1-.24-.254.959.959 0 0 1-.15-.347 1.35 1.35 0 0 1-.08-.426 5.627 5.627 0 0 1-.026-1.366c-.011-.455-.027-.91-.051-1.365a18.566 18.566 0 0 0-.111-1.361 5.694 5.694 0 0 0-.055-.351c-.02-.075-.046-.154-.081-.241a2.3 2.3 0 0 0-.226-.457 2.66 2.66 0 0 0-.428-.394c-.182-.119-.393-.22-.633-.29a4.68 4.68 0 0 0-.784-.106c-.547 0-1.032.078-1.455.234-.423.156-.788.382-1.095.68a2.965 2.965 0 0 0-.71 1.06 5.397 5.397 0 0 0-.415 1.366c-.12.55-.18 1.156-.18 1.818 0 .662.06 1.268.18 1.818.109.55.26 1.023.452 1.42.192.397.433.728.723 1.092.29.365.631.656 1.023.872.392.216.844.325 1.356.325.512 0 .964-.11 1.356-.325a2.95 2.95 0 0 0 1.023-.872c.29-.364.531-.695.723-1.092.192-.397.343-.87.452-1.42.12-.55.18-1.156.18-1.818 0-.662-.06-1.268-.18-1.818zm-5.138-10.407h3.108v4.406c0 .396.07.773.211 1.122.141.349.352.658.632.927.28.27.618.475 1.015.618.397.143.835.215 1.313.215.479 0 .916-.072 1.313-.215.397-.143.735-.348 1.015-.618.28-.269.491-.578.632-.927.141-.349.211-.726.211-1.122V.375h3.108v4.406c0 .396.07.773.211 1.122.141.349.352.658.632.927.28.27.618.475 1.015.618.397.143.835.215 1.313.215.479 0 .916-.072 1.313-.215.397-.143.735-.348 1.015-.618.28-.269.491-.578.632-.927.141-.349.211-.726.211-1.122V.375h3.108v4.406c0 1.18-.137 2.314-.412 3.404-.274 1.09-.685 2.12-1.232 3.09-.547.97-1.227 1.87-2.04 2.7-.813.83-1.748 1.58-2.805 2.25-1.057.67-2.227 1.25-3.51 1.74-1.283.49-2.67.84-4.16 1.05-1.49.21-3.066.315-4.728.315-1.662 0-3.238-.105-4.728-.315-1.49-.21-2.877-.56-4.16-1.05-1.283-.49-2.453-1.07-3.51-1.74-1.057-.67-1.992-1.42-2.805-2.25-.813-.83-1.493-1.73-2.04-2.7-.547-.97-.958-2-.232-3.09.275-1.09.412-2.224.412-3.404V.375z" fill="#3178C6"/></svg>